<svg width="21" height="19" viewBox="0 0 21 19" fill="none" xmlns="http://www.w3.org/2000/svg">
<rect x="0.699951" y="2.5" width="18.9998" height="16" rx="4.5" stroke="white"/>
<path d="M5.24524 0.909081C5.24524 0.683152 5.42839 0.5 5.65432 0.5C5.88025 0.5 6.0634 0.683152 6.0634 0.909081V1.5H5.24524V0.909081Z" fill="black" stroke="white" stroke-width="0.909081"/>
<path d="M14.3363 0.909081C14.3363 0.683152 14.5195 0.5 14.7454 0.5C14.9713 0.5 15.1545 0.683152 15.1545 0.909081V1.5H14.3363V0.909081Z" fill="white" stroke="white" stroke-width="0.909081"/>
<rect x="1.3595" y="7.25" width="18.5907" height="0.5" fill="black" stroke="white" stroke-width="0.5"/>
<rect x="4.74524" y="12" width="1.81816" height="2" rx="0.909081" fill="white"/>
<rect x="13.8363" y="12" width="1.81816" height="2" rx="0.909081" fill="white"/>
<rect x="9.29041" y="12" width="1.81816" height="2" rx="0.909081" fill="white"/>
</svg>
