<svg width="12" height="12" viewBox="0 0 12 12" fill="none" xmlns="http://www.w3.org/2000/svg">
<path d="M4.10452 11.5223V2.05606L6.194 4.12066C7.02979 4.34538 7.05545 3.65249 6.96381 3.27796L3.84333 0.117873C3.50242 -0.0956092 3.25223 0.0289219 3.16975 0.117873L0.00803518 3.37628C-0.0799427 4.24144 0.576228 4.23302 0.91531 4.12066L2.92231 2.05606V11.5223C3.3842 12.3875 3.9029 11.8828 4.10452 11.5223Z" fill="#666666"/>
<path d="M7.89548 0.477703V9.94394L5.806 7.87934C4.97021 7.65462 4.94455 8.34751 5.03619 8.72204L8.15667 11.8821C8.49758 12.0956 8.74777 11.9711 8.83025 11.8821L11.992 8.62372C12.0799 7.75856 11.4238 7.76698 11.0847 7.87934L9.07769 9.94394V0.477703C8.6158 -0.38746 8.0971 0.117218 7.89548 0.477703Z" fill="#666666"/>
</svg>
