<svg width="18" height="18" viewBox="0 0 18 18" fill="none" xmlns="http://www.w3.org/2000/svg">
<path fill-rule="evenodd" clip-rule="evenodd" d="M5.22675 7.14822C5.279 7.20061 5.34107 7.24217 5.40941 7.27052C5.47775 7.29888 5.55101 7.31348 5.625 7.31348C5.69899 7.31348 5.77225 7.29888 5.84059 7.27052C5.90892 7.24217 5.971 7.20061 6.02325 7.14822L9 4.17035L11.9767 7.14822C12.0824 7.25384 12.2256 7.31318 12.375 7.31318C12.5244 7.31318 12.6676 7.25384 12.7732 7.14822C12.8789 7.0426 12.9382 6.89934 12.9382 6.74997C12.9382 6.6006 12.8789 6.45734 12.7732 6.35172L9.39825 2.97672C9.346 2.92434 9.28392 2.88278 9.21559 2.85442C9.14725 2.82606 9.07399 2.81147 9 2.81147C8.92601 2.81147 8.85275 2.82606 8.78441 2.85442C8.71607 2.88278 8.654 2.92434 8.60175 2.97672L5.22675 6.35172C5.17436 6.40397 5.1328 6.46605 5.10445 6.53438C5.07609 6.60272 5.06149 6.67598 5.06149 6.74997C5.06149 6.82396 5.07609 6.89722 5.10445 6.96556C5.1328 7.0339 5.17436 7.09597 5.22675 7.14822Z" fill="white"/>
<path fill-rule="evenodd" clip-rule="evenodd" d="M9 15.1875C9.14918 15.1875 9.29226 15.1282 9.39775 15.0227C9.50324 14.9173 9.5625 14.7742 9.5625 14.625V4.5C9.5625 4.35082 9.50324 4.20774 9.39775 4.10225C9.29226 3.99676 9.14918 3.9375 9 3.9375C8.85082 3.9375 8.70774 3.99676 8.60225 4.10225C8.49676 4.20774 8.4375 4.35082 8.4375 4.5V14.625C8.4375 14.7742 8.49676 14.9173 8.60225 15.0227C8.70774 15.1282 8.85082 15.1875 9 15.1875Z" fill="white"/>
</svg>
